<svg xmlns="http://www.w3.org/2000/svg" viewBox="0 0 100 150" fill="none" stroke="#c4a574" stroke-width="0.6" opacity="0.35">
  <path d="M50,150 Q48,100 50,50 Q52,30 55,10"/>
  <path d="M50,120 Q30,110 20,90"/>
  <path d="M50,100 Q70,95 85,80"/>
  <path d="M50,80 Q35,75 25,60"/>
  <path d="M50,60 Q65,55 75,45"/>
  <path d="M50,45 Q40,40 35,25"/>
  <path d="M55,30 Q60,25 70,20"/>
  <ellipse cx="20" cy="88" rx="8" ry="12" transform="rotate(-30 20 88)"/>
  <ellipse cx="85" cy="78" rx="8" ry="12" transform="rotate(30 85 78)"/>
  <ellipse cx="25" cy="58" rx="6" ry="10" transform="rotate(-25 25 58)"/>
  <ellipse cx="75" cy="43" rx="6" ry="10" transform="rotate(25 75 43)"/>
  <ellipse cx="35" cy="23" rx="5" ry="8" transform="rotate(-20 35 23)"/>
  <ellipse cx="70" cy="18" rx="5" ry="8" transform="rotate(20 70 18)"/>
</svg>
