<svg xmlns="http://www.w3.org/2000/svg" viewBox="0 0 200 200" fill="#c9a86c" opacity="0.15">
  <circle cx="50" cy="60" r="4"/>
  <circle cx="80" cy="40" r="2.5"/>
  <circle cx="120" cy="55" r="3"/>
  <circle cx="150" cy="70" r="2"/>
  <circle cx="45" cy="100" r="3"/>
  <circle cx="90" cy="90" r="1.5"/>
  <circle cx="130" cy="110" r="2.5"/>
  <circle cx="160" cy="95" r="1.8"/>
  <circle cx="60" cy="140" r="2.2"/>
  <circle cx="100" cy="130" r="3.5"/>
  <circle cx="140" cy="145" r="2"/>
  <circle cx="170" cy="130" r="1.5"/>
  <circle cx="35" cy="80" r="1.8"/>
  <circle cx="175" cy="50" r="2.3"/>
  <circle cx="70" cy="165" r="1.5"/>
  <circle cx="110" cy="170" r="2"/>
  <circle cx="155" cy="160" r="1.2"/>
  <circle cx="25" cy="150" r="2"/>
  <circle cx="85" cy="75" r="1"/>
  <circle cx="115" cy="85" r="1.2"/>
</svg>
