<svg xmlns="http://www.w3.org/2000/svg" viewBox="0 0 200 200" fill="none" stroke="#c4a574" stroke-width="0.8" opacity="0.4">
  <path d="M100,100 Q80,60 100,30 Q120,60 100,100"/>
  <path d="M100,100 Q140,80 170,100 Q140,120 100,100"/>
  <path d="M100,100 Q120,140 100,170 Q80,140 100,100"/>
  <path d="M100,100 Q60,120 30,100 Q60,80 100,100"/>
  <path d="M100,100 Q70,70 50,50 Q90,70 100,100"/>
  <path d="M100,100 Q130,70 150,50 Q110,70 100,100"/>
  <path d="M100,100 Q130,130 150,150 Q110,130 100,100"/>
  <path d="M100,100 Q70,130 50,150 Q90,130 100,100"/>
  <circle cx="100" cy="100" r="8" fill="#c4a574" opacity="0.3"/>
  <path d="M95,20 Q100,10 105,20 M95,25 L95,35 M105,25 L105,35"/>
  <path d="M60,35 Q55,25 65,30 L75,45"/>
  <path d="M140,35 Q145,25 135,30 L125,45"/>
</svg>
